<svg width="26" height="26" viewBox="0 0 26 26" fill="none" xmlns="http://www.w3.org/2000/svg">
<path d="M19.2725 24.6456H6.72752C3.75919 24.6456 1.35419 22.2298 1.35419 19.2615V11.234C1.35419 9.76064 2.26419 7.90814 3.43419 6.99814L9.27335 2.44814C11.0284 1.08314 13.8342 1.01814 15.6542 2.29648L22.3492 6.98731C23.6384 7.88648 24.6459 9.81481 24.6459 11.3856V19.2723C24.6459 22.2298 22.2409 24.6456 19.2725 24.6456ZM10.27 3.72648L4.43085 8.27648C3.66169 8.88314 2.97919 10.259 2.97919 11.234V19.2615C2.97919 21.3306 4.65835 23.0206 6.72752 23.0206H19.2725C21.3417 23.0206 23.0209 21.3415 23.0209 19.2723V11.3856C23.0209 10.3456 22.2734 8.90481 21.4175 8.31981L14.7225 3.62898C13.4875 2.76231 11.4509 2.80564 10.27 3.72648Z" fill="#0065FF"/>
<path d="M13 20.3125C12.5558 20.3125 12.1875 19.9442 12.1875 19.5V16.25C12.1875 15.8058 12.5558 15.4375 13 15.4375C13.4442 15.4375 13.8125 15.8058 13.8125 16.25V19.5C13.8125 19.9442 13.4442 20.3125 13 20.3125Z" fill="#0065FF"/>
</svg>
